<svg width="24" height="24" viewBox="0 0 24 24" fill="none" xmlns="http://www.w3.org/2000/svg">
<path fill-rule="evenodd" clip-rule="evenodd" d="M14.476 19.062L4.384 12.852C4.2384 12.7625 4.11816 12.6372 4.03475 12.4881C3.95134 12.3389 3.90754 12.1709 3.90754 12C3.90754 11.8291 3.95134 11.6611 4.03475 11.5119C4.11816 11.3628 4.2384 11.2375 4.384 11.148L14.476 4.938C14.6275 4.84477 14.8012 4.79365 14.9791 4.78994C15.157 4.78622 15.3327 4.83004 15.488 4.91686C15.6433 5.00369 15.7726 5.13038 15.8626 5.28387C15.9526 5.43735 16.0001 5.61207 16 5.79L16 18.21C16.0001 18.3879 15.9526 18.5627 15.8626 18.7161C15.7726 18.8696 15.6433 18.9963 15.488 19.0831C15.3327 19.17 15.157 19.2138 14.9791 19.2101C14.8012 19.2063 14.6275 19.1552 14.476 19.062Z" fill="black"/>
</svg>
