<svg width="28" height="28" viewBox="0 0 28 28" fill="none" xmlns="http://www.w3.org/2000/svg">
<path d="M21.119 3.213C23.519 3.213 24.738 4.383 24.7855 6.7025L24.787 6.8455V21.155C24.787 23.5205 23.617 24.7385 21.2645 24.786L21.1195 24.7875H6.892C4.5035 24.7875 3.2625 23.6285 3.214 21.299L3.2125 21.155V6.845C3.2125 4.468 4.4055 3.261 6.7475 3.214L6.8925 3.2125L21.119 3.213ZM21.084 5.0995H6.9275C5.7935 5.0995 5.1425 5.6815 5.1015 6.8235L5.0995 6.9395V21.06C5.0995 22.2395 5.7145 22.859 6.816 22.898L6.9275 22.9H21.084C22.2065 22.9 22.8575 22.318 22.8985 21.176L22.9005 21.06V6.94C22.9005 5.7605 22.2855 5.141 21.1945 5.102L21.084 5.0995ZM8.1165 17.0865L8.5005 18.2685C8.50878 18.2937 8.52487 18.3156 8.54645 18.3311C8.56802 18.3466 8.59396 18.3548 8.6205 18.3545L9.8555 18.3475C9.88199 18.3472 9.9079 18.3554 9.92946 18.3707C9.95103 18.3861 9.96715 18.408 9.9755 18.4331C9.98385 18.4583 9.98398 18.4854 9.9759 18.5107C9.96781 18.5359 9.95191 18.5579 9.9305 18.5735L8.9295 19.312C8.90827 19.3276 8.89249 19.3494 8.88441 19.3745C8.87633 19.3995 8.87636 19.4265 8.8845 19.4515L9.2695 20.635C9.27745 20.6601 9.27729 20.687 9.26903 20.712C9.26078 20.737 9.24485 20.7587 9.22352 20.7741C9.20219 20.7895 9.17655 20.7978 9.15024 20.7978C9.12393 20.7978 9.0983 20.7894 9.077 20.774L8.071 20.044C8.04964 20.0285 8.02391 20.0201 7.9975 20.0201C7.97109 20.0201 7.94536 20.0285 7.924 20.044L6.918 20.774C6.89666 20.7895 6.87096 20.7979 6.84457 20.7979C6.81818 20.798 6.79246 20.7896 6.7711 20.7742C6.74973 20.7587 6.73381 20.7368 6.72562 20.7117C6.71743 20.6866 6.71739 20.6596 6.7255 20.6345L7.1095 19.452C7.11776 19.4269 7.11785 19.3998 7.10976 19.3747C7.10168 19.3495 7.08583 19.3276 7.0645 19.312L6.0515 18.5735C6.03016 18.5579 6.0143 18.536 6.00619 18.5109C5.99808 18.4858 5.99813 18.4587 6.00635 18.4336C6.01457 18.4085 6.03053 18.3867 6.05193 18.3712C6.07334 18.3557 6.09909 18.3474 6.1255 18.3475L7.3755 18.3545C7.40217 18.3547 7.4282 18.3464 7.44979 18.3307C7.47138 18.3151 7.48739 18.2929 7.4955 18.2675L7.8785 17.0865C7.8866 17.0613 7.90249 17.0393 7.92387 17.0238C7.94526 17.0082 7.97104 16.9998 7.9975 16.9998C8.02396 16.9998 8.04974 17.0082 8.07113 17.0238C8.09251 17.0393 8.1084 17.0613 8.1165 17.0865ZM20.591 18C21.093 18 21.5 18.4475 21.5 19C21.5 19.5525 21.093 20 20.591 20H12.409C11.907 20 11.5 19.5525 11.5 19C11.5 18.4475 11.907 18 12.409 18H20.591ZM8.1165 12.0865L8.5005 13.2685C8.50878 13.2937 8.52487 13.3156 8.54645 13.3311C8.56802 13.3466 8.59396 13.3548 8.6205 13.3545L9.8555 13.3475C9.88186 13.3474 9.9076 13.3556 9.92902 13.3709C9.95045 13.3863 9.96646 13.408 9.97479 13.4331C9.98311 13.4581 9.9833 13.4851 9.97535 13.5102C9.96739 13.5353 9.9517 13.5573 9.9305 13.573L8.9295 14.3125C8.90847 14.328 8.89282 14.3497 8.88475 14.3745C8.87668 14.3994 8.87659 14.4261 8.8845 14.451L9.2695 15.6345C9.27778 15.6596 9.27786 15.6868 9.26973 15.712C9.26161 15.7372 9.2457 15.7591 9.22429 15.7747C9.20288 15.7903 9.17709 15.7986 9.15062 15.7986C9.12415 15.7986 9.09837 15.7901 9.077 15.7745L8.071 15.0435C8.04964 15.028 8.02391 15.0196 7.9975 15.0196C7.97109 15.0196 7.94536 15.028 7.924 15.0435L6.918 15.7745C6.89663 15.7901 6.87085 15.7986 6.84438 15.7986C6.81791 15.7986 6.79212 15.7903 6.77071 15.7747C6.7493 15.7591 6.73339 15.7372 6.72526 15.712C6.71714 15.6868 6.71722 15.6596 6.7255 15.6345L7.1095 14.452C7.11776 14.4269 7.11785 14.3998 7.10976 14.3747C7.10168 14.3495 7.08583 14.3276 7.0645 14.312L6.0515 13.574C6.02995 13.5585 6.01388 13.5366 6.00564 13.5113C5.99739 13.4861 5.99739 13.4589 6.00563 13.4337C6.01387 13.4084 6.02993 13.3865 6.05148 13.371C6.07304 13.3555 6.09896 13.3473 6.1255 13.3475L7.3755 13.3545C7.40217 13.3547 7.4282 13.3464 7.44979 13.3307C7.47138 13.3151 7.48739 13.2929 7.4955 13.2675L7.8785 12.086C7.8866 12.0608 7.90249 12.0388 7.92387 12.0232C7.94526 12.0077 7.97104 11.9993 7.9975 11.9993C8.02396 11.9993 8.04974 12.0077 8.07113 12.0232C8.09251 12.0388 8.1084 12.0613 8.1165 12.0865ZM20.591 13C21.093 13 21.5 13.4475 21.5 14C21.5 14.5525 21.093 15 20.591 15H12.409C11.907 15 11.5 14.5525 11.5 14C11.5 13.4475 11.907 13 12.409 13H20.591ZM8.1165 7.0865L8.5005 8.2685C8.50878 8.29372 8.52487 8.31565 8.54645 8.33111C8.56802 8.34657 8.59396 8.35476 8.6205 8.3545L9.8555 8.3475C9.88186 8.34736 9.9076 8.35556 9.92902 8.37092C9.95045 8.38629 9.96646 8.40803 9.97479 8.43305C9.98311 8.45807 9.9833 8.48507 9.97535 8.51021C9.96739 8.53535 9.9517 8.55732 9.9305 8.573L8.9295 9.312C8.90827 9.32756 8.89249 9.34941 8.88441 9.37446C8.87633 9.39951 8.87636 9.42647 8.8845 9.4515L9.2695 10.635C9.27761 10.6601 9.27757 10.6871 9.26938 10.7122C9.26119 10.7373 9.24527 10.7592 9.2239 10.7747C9.20254 10.7901 9.17682 10.7985 9.15043 10.7984C9.12404 10.7984 9.09834 10.79 9.077 10.7745L8.071 10.0435C8.04964 10.028 8.02391 10.0196 7.9975 10.0196C7.97109 10.0196 7.94536 10.028 7.924 10.0435L6.918 10.7745C6.89663 10.7901 6.87085 10.7986 6.84438 10.7986C6.81791 10.7986 6.79212 10.7903 6.77071 10.7747C6.7493 10.7591 6.73339 10.7371 6.72526 10.712C6.71714 10.6868 6.71722 10.6596 6.7255 10.6345L7.1095 9.452C7.11776 9.4269 7.11785 9.39984 7.10976 9.37468C7.10168 9.34953 7.08583 9.32759 7.0645 9.312L6.0515 8.574C6.02995 8.55851 6.01388 8.53656 6.00564 8.51133C5.99739 8.48611 5.99739 8.45891 6.00563 8.43368C6.01387 8.40845 6.02993 8.3865 6.05148 8.371C6.07304 8.35551 6.09896 8.34728 6.1255 8.3475L7.3755 8.3545C7.40217 8.3547 7.4282 8.34636 7.44979 8.33071C7.47138 8.31505 7.48739 8.29291 7.4955 8.2675L7.8785 7.086C7.8866 7.06081 7.90249 7.03884 7.92387 7.02325C7.94526 7.00766 7.97104 6.99926 7.9975 6.99926C8.02396 6.99926 8.04974 7.00766 8.07113 7.02325C8.09251 7.03884 8.1084 7.06081 8.1165 7.086M20.591 8C21.093 8 21.5 8.4475 21.5 9C21.5 9.5525 21.093 10 20.591 10H12.409C11.907 10 11.5 9.5525 11.5 9C11.5 8.4475 11.907 8 12.409 8H20.591Z" fill="black"/>
</svg>
