<svg width="21" height="21" viewBox="0 0 21 21" fill="none" xmlns="http://www.w3.org/2000/svg">
<path d="M18.4524 4.2927L18.9424 3.2327L20.0024 2.7427C20.0897 2.70292 20.1637 2.63888 20.2156 2.5582C20.2675 2.47753 20.2951 2.38362 20.2951 2.2877C20.2951 2.19177 20.2675 2.09787 20.2156 2.01719C20.1637 1.93651 20.0897 1.87247 20.0024 1.8327L18.9424 1.3427L18.4524 0.292696C18.4127 0.205402 18.3486 0.131391 18.268 0.0794932C18.1873 0.027595 18.0934 0 17.9974 0C17.9015 0 17.8076 0.027595 17.7269 0.0794932C17.6463 0.131391 17.5822 0.205402 17.5424 0.292696L17.0524 1.3527L16.0024 1.8427C15.9151 1.88247 15.8411 1.94651 15.7892 2.02719C15.7373 2.10787 15.7097 2.20177 15.7097 2.2977C15.7097 2.39362 15.7373 2.48753 15.7892 2.5682C15.8411 2.64888 15.9151 2.71292 16.0024 2.7527L17.0624 3.2427L17.5524 4.2927C17.7224 4.6827 18.2824 4.6827 18.4524 4.2927ZM15.7124 7.4127L12.8824 4.5827C12.7899 4.48999 12.68 4.41644 12.5591 4.36626C12.4381 4.31608 12.3084 4.29025 12.1774 4.29025C12.0465 4.29025 11.9168 4.31608 11.7958 4.36626C11.6748 4.41644 11.565 4.48999 11.4724 4.5827L0.292444 15.7527C0.19974 15.8452 0.126193 15.9551 0.0760114 16.0761C0.02583 16.197 0 16.3267 0 16.4577C0 16.5887 0.02583 16.7183 0.0760114 16.8393C0.126193 16.9603 0.19974 17.0702 0.292444 17.1627L3.12244 19.9927C3.51244 20.3827 4.14244 20.3827 4.53244 19.9927L15.7024 8.8227C16.1024 8.4427 16.1024 7.8027 15.7124 7.4127ZM12.2124 9.5027L10.8024 8.0927L12.1824 6.7127L13.5924 8.1227L12.2124 9.5027Z" fill="black"/>
</svg>
