<svg width="20" height="20" viewBox="0 0 20 20" fill="none" xmlns="http://www.w3.org/2000/svg">
<path d="M10.0003 0C10.186 9.91486e-05 10.3679 0.0518831 10.5258 0.149552C10.6837 0.247222 10.8113 0.386919 10.8943 0.553L13.4743 5.711L19.1443 6.535C19.329 6.56182 19.5025 6.6398 19.6452 6.7601C19.7879 6.88041 19.894 7.03825 19.9517 7.21576C20.0093 7.39327 20.0161 7.58337 19.9714 7.76456C19.9266 7.94574 19.832 8.11078 19.6983 8.241L15.5713 12.265L16.4993 17.939C16.5291 18.1227 16.5071 18.311 16.4357 18.4829C16.3643 18.6547 16.2464 18.8032 16.0952 18.9117C15.944 19.0202 15.7655 19.0843 15.5799 19.0969C15.3942 19.1095 15.2087 19.0701 15.0443 18.983L10.0003 16.307L4.95629 18.983C4.79184 19.0701 4.60635 19.1095 4.42069 19.0969C4.23504 19.0843 4.05658 19.0202 3.90539 18.9117C3.7542 18.8032 3.63628 18.6547 3.56489 18.4829C3.4935 18.311 3.47147 18.1227 3.50129 17.939L4.42929 12.265L0.30229 8.241C0.168587 8.11078 0.0739938 7.94574 0.0292122 7.76456C-0.0155694 7.58337 -0.00875233 7.39327 0.0488922 7.21576C0.106537 7.03825 0.212708 6.88041 0.355395 6.7601C0.498082 6.6398 0.67159 6.56182 0.85629 6.535L6.52629 5.711L9.10629 0.553C9.18928 0.386919 9.31687 0.247222 9.47476 0.149552C9.63266 0.0518831 9.81463 9.91486e-05 10.0003 0ZM10.0003 3.236L8.08229 7.072C8.01031 7.21626 7.90451 7.34099 7.77392 7.43553C7.64333 7.53008 7.49182 7.59165 7.33229 7.615L3.14829 8.223L6.19829 11.196C6.31355 11.3083 6.40001 11.4468 6.45032 11.5996C6.50064 11.7525 6.51332 11.9152 6.48729 12.074L5.80029 16.271L9.53129 14.291C9.67572 14.2143 9.83676 14.1742 10.0003 14.1742C10.1638 14.1742 10.3249 14.2143 10.4693 14.291L14.2003 16.271L13.5133 12.074C13.4874 11.9154 13.5002 11.7528 13.5505 11.6001C13.6008 11.4475 13.6872 11.3092 13.8023 11.197L16.8523 8.223L12.6693 7.615C12.5098 7.59165 12.3582 7.53008 12.2277 7.43553C12.0971 7.34099 11.9913 7.21626 11.9193 7.072L10.0003 3.236Z" fill="black"/>
</svg>
