<svg width="18" height="18" viewBox="0 0 18 18" fill="none" xmlns="http://www.w3.org/2000/svg">
<path fill-rule="evenodd" clip-rule="evenodd" d="M10.9652 12.0252C9.61714 13.1023 7.90784 13.6223 6.18834 13.4785C4.46885 13.3347 2.86969 12.5379 1.7193 11.2519C0.56891 9.96582 -0.0453726 8.28809 0.00261376 6.56326C0.0506001 4.83842 0.757213 3.19744 1.97732 1.97732C3.19744 0.757213 4.83842 0.0506001 6.56326 0.00261376C8.28809 -0.0453726 9.96583 0.56891 11.2519 1.7193C12.5379 2.86969 13.3347 4.46885 13.4785 6.18834C13.6223 7.90784 13.1023 9.61713 12.0252 10.9652L17.1812 16.1202C17.2549 16.1888 17.314 16.2716 17.3549 16.3636C17.3959 16.4556 17.418 16.5549 17.4198 16.6556C17.4215 16.7563 17.403 16.8564 17.3653 16.9498C17.3276 17.0432 17.2714 17.128 17.2002 17.1992C17.129 17.2704 17.0442 17.3266 16.9508 17.3643C16.8574 17.402 16.7573 17.4205 16.6566 17.4188C16.5559 17.417 16.4566 17.3949 16.3646 17.3539C16.2726 17.313 16.1898 17.2539 16.1212 17.1802L10.9652 12.0252ZM3.04017 10.4632C2.30621 9.72913 1.80632 8.794 1.60368 7.77594C1.40104 6.75788 1.50474 5.7026 1.90168 4.74347C2.29862 3.78433 2.97098 2.96439 3.83378 2.38727C4.69659 1.81015 5.71111 1.50175 6.74914 1.50105C7.78717 1.50035 8.8021 1.80739 9.66569 2.38334C10.5293 2.9593 11.2027 3.77834 11.601 4.73694C11.9992 5.69554 12.1043 6.75068 11.903 7.76901C11.7018 8.78734 11.2031 9.72315 10.4702 10.4582L10.4652 10.4632L10.4602 10.4672C9.47526 11.4498 8.14059 12.0013 6.74934 12.0005C5.35808 11.9998 4.02402 11.4469 3.04017 10.4632Z" fill="black"/>
</svg>
